<svg width="38" height="38" viewBox="0 0 38 38" fill="none" xmlns="http://www.w3.org/2000/svg">
<circle cx="19.2094" cy="18.7174" r="18.3978" fill="#0B152F"/>
<path fill-rule="evenodd" clip-rule="evenodd" d="M23.4616 20.7094C24.3864 21.0025 25.3622 21.1515 26.356 21.1515C27.0742 21.1515 27.6585 21.7119 27.6586 22.4007V25.2516C27.6586 25.9403 27.0742 26.5007 26.356 26.5007C18.1234 26.5007 11.4258 20.0777 11.4258 12.1825C11.4258 11.4937 12.0102 10.9333 12.7283 10.9333H15.7094C16.4276 10.9333 17.012 11.4937 17.0119 12.1825C17.0119 13.1361 17.1678 14.0714 17.4747 14.9629C17.624 15.419 17.4994 15.9051 17.152 16.2378L15.8147 17.9426C16.9292 19.9573 18.233 21.2073 20.3497 22.2909L22.175 20.9696C22.4757 20.6756 23.0006 20.5586 23.4616 20.7094ZM26.3555 25.6356C26.5765 25.6356 26.7562 25.4633 26.7562 25.2513V22.4004C26.7562 22.1884 26.5765 22.0161 26.3555 22.0161C25.2652 22.0161 24.1947 21.8522 23.1735 21.5288C23.03 21.4819 22.871 21.5182 22.7649 21.62L20.6649 23.1457C20.5266 23.2458 20.3399 23.2618 20.1876 23.1854C17.6834 21.9549 16.1461 20.4806 14.881 18.0959C14.8031 17.9486 14.8194 17.7716 14.9233 17.6394L16.4733 15.6708C16.6248 15.5196 16.6627 15.371 16.616 15.2274C16.2809 14.2548 16.1096 13.2282 16.1096 12.1822C16.1096 11.9702 15.93 11.7979 15.7089 11.7979H12.7278C12.5068 11.7979 12.3271 11.9702 12.3271 12.1822C12.3271 19.6006 18.62 25.6356 26.3555 25.6356Z" fill="white"/>
</svg>
