<svg width="110" height="110" viewBox="0 0 110 110" fill="none" xmlns="http://www.w3.org/2000/svg">
<path d="M40.471 90.646C25.8888 86.1167 13.8483 72.6572 12.6553 59.6666C11.5057 46.6369 21.2469 34.0371 32.154 25.7791C43.0611 17.521 55.1729 13.648 66.761 16.4192C78.3492 19.1905 89.3705 28.645 93.0456 41.4324C96.7639 54.1807 93.0927 70.3009 82.6975 80.5203C72.2589 90.7787 55.1353 95.1795 40.471 90.646Z" fill="#DD1EF3"/>
<path fill-rule="evenodd" clip-rule="evenodd" d="M72.6119 49.4741H73.3885C74.673 49.4741 75.7184 50.5226 75.7184 51.8109V54.9267C75.7184 56.215 74.673 57.2635 73.3885 57.2635H72.6119V60.7687C72.6119 62.4869 71.2179 63.8845 69.5054 63.8845C68.9066 63.8845 68.3465 63.7138 67.8721 63.418C67.5544 64.7997 66.3173 65.8318 64.8457 65.8318C63.1326 65.8318 61.7383 64.4343 61.7383 62.7161V57.2635H49.9355V62.7161C49.9355 64.4343 48.5412 65.8318 46.829 65.8318H46.8281C45.3564 65.8318 44.1193 64.7997 43.8017 63.418C43.3272 63.7138 42.7672 63.8845 42.1683 63.8845C40.4558 63.8845 39.0619 62.4869 39.0619 60.7687V57.2635H38.2852C37.0008 57.2635 35.9554 56.215 35.9554 54.9267V51.8109C35.9554 50.5226 37.0008 49.4741 38.2852 49.4741H39.0619V45.9689C39.0619 44.2506 40.4558 42.8531 42.1683 42.8531C42.7672 42.8531 43.3272 43.0238 43.8017 43.3196C44.1193 41.9379 45.3564 40.9058 46.8281 40.9058C48.5412 40.9058 49.9355 42.3033 49.9355 44.0215V49.4741H61.7383V44.0215C61.7383 42.3033 63.1326 40.9058 64.8448 40.9058H64.8457C66.3173 40.9058 67.5544 41.9379 67.8721 43.3196C68.3465 43.0238 68.9066 42.8531 69.5054 42.8531C71.2179 42.8531 72.6119 44.2506 72.6119 45.9689V49.4741ZM38.2857 55.7061H39.0623V51.0325H38.2857C37.8576 51.0325 37.509 51.3821 37.509 51.8114V54.9272C37.509 55.3565 37.8576 55.7061 38.2857 55.7061ZM43.7216 60.7691C43.7216 61.1991 43.5478 61.5885 43.2665 61.8706C42.9853 62.1527 42.597 62.327 42.1683 62.327C41.3116 62.327 40.6151 61.6284 40.6151 60.7691V45.9693C40.6151 45.11 41.3116 44.4114 42.1683 44.4114C43.0251 44.4114 43.7216 45.11 43.7216 45.9693V60.7691ZM46.829 64.2743C47.6848 64.2743 48.3822 63.5757 48.3822 62.7164V44.0219C48.3822 43.1626 47.6848 42.464 46.829 42.464C45.9722 42.464 45.2748 43.1626 45.2748 44.0219V62.7164C45.2748 63.5757 45.9722 64.2743 46.828 64.2743H46.829ZM61.7337 52.5904H56.3029C55.8742 52.5904 55.5262 52.9394 55.5262 53.3693C55.5262 53.7993 55.8742 54.1483 56.3029 54.1483H61.7337V55.7061H49.9315V51.0325H61.7337V52.5904ZM64.845 64.2743C65.7017 64.2743 66.3992 63.5757 66.3992 62.7164V44.0219C66.3992 43.1626 65.7017 42.464 64.8459 42.464H64.845C63.9892 42.464 63.2918 43.1626 63.2918 44.0219V53.3293C63.2912 53.3123 63.2896 53.2952 63.2872 53.2788V53.4595C63.2896 53.4431 63.2912 53.4261 63.2918 53.409V62.7164C63.2918 63.5757 63.9892 64.2743 64.845 64.2743ZM71.0588 60.7691C71.0588 61.6284 70.3622 62.327 69.5055 62.327C68.6488 62.327 67.9523 61.6284 67.9523 60.7691V45.9693C67.9523 45.11 68.6488 44.4114 69.5055 44.4114C70.3622 44.4114 71.0588 45.11 71.0588 45.9693V60.7691ZM73.3886 55.7061C73.8166 55.7061 74.1652 55.3565 74.1652 54.9272V51.8114C74.1652 51.3821 73.8166 51.0325 73.3886 51.0325H72.612V55.7061H73.3886Z" fill="white"/>
<path d="M52.8689 53.9617C52.3777 53.9617 51.9792 53.5635 51.9792 53.0722C51.9792 52.5808 52.377 52.1826 52.8682 52.1826H52.8689C53.3601 52.1826 53.7583 52.5808 53.7583 53.0722C53.7583 53.5635 53.3601 53.9617 52.8689 53.9617Z" fill="white"/>
</svg>
