<svg width="108" height="110" viewBox="0 0 108 110" fill="none" xmlns="http://www.w3.org/2000/svg">
<path d="M61.1659 16.9183C76.3711 18.3168 90.9469 28.9788 94.8147 41.4376C98.6482 53.9435 91.7395 68.2933 82.7877 78.6385C73.8359 88.9838 62.7941 95.2904 50.8829 94.9891C38.9718 94.6877 26.2256 87.7312 19.9723 75.9874C13.6846 64.2907 13.9241 47.7595 21.9674 35.6021C30.045 23.3976 45.8795 15.5327 61.1659 16.9183Z" fill="#5447E5"/>
<path fill-rule="evenodd" clip-rule="evenodd" d="M74.4596 44.6194L58.1359 36.5693C56.7287 35.859 54.3365 35.859 52.9292 36.5693L36.2303 44.6194C35.0576 45.1876 34.87 45.9926 34.87 46.4188C34.87 46.845 35.0576 47.6026 36.2303 48.2182L37.5906 48.8812V56.4577C36.7463 56.7891 36.1365 57.6415 36.1365 58.5885C36.1365 59.5356 36.7463 60.388 37.5437 60.7194L35.4329 67.4909H41.3432L39.2324 60.7194C40.0767 60.388 40.6396 59.5356 40.6396 58.5885C40.6396 57.5941 40.0298 56.7891 39.1855 56.4577V49.6862L41.6715 50.9173V60.7668C41.6715 60.9088 41.7184 61.0509 41.8123 61.193C41.8208 61.2033 41.8347 61.2211 41.854 61.2459C42.369 61.9051 46.7322 67.4909 55.3215 67.4909C63.9863 67.4909 68.3504 61.7618 68.7586 61.2259C68.7702 61.2106 68.7786 61.1995 68.7839 61.193C68.8777 61.0509 68.9246 60.9088 68.9246 60.7668V50.9647L74.4596 48.2182C75.6323 47.65 75.8199 46.845 75.8199 46.4188C75.773 45.9926 75.6323 45.1876 74.4596 44.6194ZM67.4237 60.53C66.6732 61.477 62.6392 66.0229 55.3217 66.0229C48.0042 66.0229 43.9701 61.477 43.2196 60.53V51.5802L52.9294 56.2682C53.633 56.5996 54.5712 56.7891 55.5093 56.7891C56.4944 56.7891 57.4325 56.5996 58.1361 56.2208L67.4237 51.6276V60.53ZM68.1727 49.6848L73.8016 46.891C74.1769 46.7015 74.3176 46.4648 74.3176 46.4648C74.3176 46.3701 74.2238 46.1807 73.8016 45.9912L57.4779 37.9412C57.0088 37.7045 56.2583 37.5624 55.5078 37.5624C54.8042 37.5624 54.1006 37.7045 53.5846 37.9412L36.8857 46.0386C36.4635 46.228 36.3697 46.4174 36.3697 46.4648C36.3697 46.4648 36.4635 46.7015 36.8857 46.891L38.5743 47.696L55.2733 45.7071C55.6485 45.6598 56.0238 45.9439 56.0707 46.3701C56.1176 46.7489 55.8362 47.1277 55.414 47.1751L41.0135 48.8798L53.5377 54.941C54.5697 55.4619 56.4929 55.4619 57.4779 54.941L67.6568 49.9689C67.7506 49.7795 67.9382 49.6848 68.1727 49.6848Z" fill="white"/>
</svg>
