<svg width="38" height="38" viewBox="0 0 38 38" fill="none" xmlns="http://www.w3.org/2000/svg">
<circle cx="19.2094" cy="18.6778" r="18.3978" fill="#0B152F"/>
<path fill-rule="evenodd" clip-rule="evenodd" d="M26.6508 12.3423H11.732C10.7827 12.3423 10.0105 13.0926 10.0105 14.0149V24.0507C10.0105 24.973 10.7827 25.7233 11.732 25.7233H26.6508C27.6001 25.7233 28.3722 24.973 28.3722 24.0507V14.0149C28.3722 13.0926 27.6001 12.3423 26.6508 12.3423ZM26.65 13.4566C26.7279 13.4566 26.8021 13.4723 26.8699 13.4998L19.1905 19.9669L11.5112 13.4998C11.579 13.4724 11.6531 13.4566 11.7311 13.4566H26.65ZM11.1578 24.0505C11.1578 24.3581 11.415 24.608 11.7316 24.608H26.6505C26.9671 24.608 27.2243 24.3581 27.2243 24.0505V14.6784L19.5671 21.1267C19.4589 21.2176 19.325 21.2628 19.1911 21.2628C19.0571 21.2628 18.9232 21.2176 18.8151 21.1267L11.1578 14.6784V24.0505Z" fill="white"/>
</svg>
