<svg width="109" height="107" viewBox="0 0 109 107" fill="none" xmlns="http://www.w3.org/2000/svg">
<path d="M15.944 48.8929C16.2785 33.6272 25.8977 18.3431 38.0563 13.6157C50.2643 8.9191 65.0611 14.81 76.0056 23.0184C86.9502 31.2267 94.0117 41.8017 94.5419 53.7048C95.0721 65.608 89.0217 78.8083 77.7427 85.8657C66.5131 92.9539 50.0055 93.8683 37.3166 86.6926C24.5784 79.486 15.6281 64.2387 15.944 48.8929Z" fill="#F48F46"/>
<path fill-rule="evenodd" clip-rule="evenodd" d="M69.9494 49.7575C70.5843 49.7579 71.1296 50.2095 71.2493 50.8341L74.1483 65.7424C74.2613 66.3263 74.1077 66.9302 73.7294 67.3887C73.3512 67.8472 72.788 68.1121 72.1942 68.111H58.3684C57.8043 69.027 56.1541 69.4376 54.6 69.4376C53.0293 69.4376 51.3632 69.0171 50.8149 68.111H37.0057C36.4118 68.1122 35.8485 67.8471 35.4702 67.3885C35.0919 66.9298 34.9384 66.3257 35.0516 65.7417L37.9513 50.8294C38.072 50.2062 38.6167 49.756 39.2505 49.7556H40.5325L40.6265 49.1891C40.722 48.62 41.1719 48.1768 41.7417 48.0907C41.8437 48.0756 41.9495 48.0618 42.0559 48.0478H42.056L42.0561 48.0478C42.1279 48.0384 42.2 48.0289 42.2714 48.019C41.7788 46.476 42.0124 44.7923 42.9064 43.4423C42.8645 43.2566 42.8423 43.0669 42.8402 42.8765C42.8409 41.778 43.4986 40.7869 44.5096 40.3613C44.5711 39.3589 45.0845 38.439 45.9046 37.8614C46.7247 37.2838 47.7626 37.1112 48.7251 37.3923C49.5919 36.2728 50.9249 35.6152 52.3393 35.6094C53.2171 35.6103 54.0759 35.8658 54.8119 36.345C55.3961 35.7929 56.1958 35.5307 56.9929 35.63C57.79 35.7293 58.5012 36.1797 58.9326 36.8584C58.9597 36.8575 58.986 36.8555 59.0125 36.8534C59.0476 36.8506 59.083 36.8478 59.1207 36.8478C61.8206 36.8641 64.1295 38.7965 64.6254 41.455C65.4011 41.6207 66.0654 42.1184 66.4431 42.8169C66.8208 43.5155 66.8741 44.3447 66.5888 45.0859C67.1288 45.9708 67.3089 47.0295 67.0921 48.0436C67.1399 48.0502 67.1881 48.0562 67.2364 48.0622L67.2365 48.0622L67.2366 48.0622L67.2367 48.0623C67.3145 48.072 67.3926 48.0817 67.4702 48.094C68.0369 48.1832 68.4829 48.6261 68.5767 49.1931L68.6707 49.7575H69.9494ZM44.2152 42.5051C44.0487 43.111 44.3053 43.7538 44.8429 44.0776V44.0749C45.1511 44.2662 45.2485 44.6701 45.0614 44.9811C44.8744 45.2922 44.4723 45.3947 44.1595 45.2112C43.9804 45.1 43.815 44.968 43.6669 44.8178C43.0737 46.2118 43.3062 47.8207 44.2697 48.9889C45.2332 50.1571 46.7667 50.6894 48.2452 50.369C48.2075 50.1498 48.1873 49.928 48.1849 49.7057C47.0174 49.5789 46.1318 48.593 46.1289 47.4166C46.1281 47.0487 46.4238 46.749 46.7911 46.7454C46.9658 46.7434 47.134 46.8115 47.2584 46.9345C47.3827 47.0574 47.4529 47.225 47.4532 47.4001V47.4166C47.4616 47.9396 47.8727 48.3669 48.3942 48.3943C48.4879 48.0964 48.615 47.81 48.773 47.5407C48.8949 47.3368 49.1162 47.2135 49.3535 47.2173C49.5908 47.2212 49.808 47.3515 49.9233 47.5593C50.0386 47.767 50.0345 48.0206 49.9126 48.2245C49.1598 49.4873 49.4939 51.1169 50.6827 51.9802C51.8714 52.8436 53.5215 52.655 54.4856 51.5457C54.6689 51.3326 54.9664 51.2584 55.2279 51.3606C55.9246 51.6373 56.6753 51.7508 57.4224 51.6923C57.8102 51.6667 58.1938 51.5962 58.5654 51.482C58.7915 51.4123 59.0376 51.4688 59.2109 51.6302C59.3843 51.7915 59.4585 52.0332 59.4056 52.2643C59.3528 52.4953 59.1809 52.6805 58.9547 52.7502C58.6227 52.8485 58.2832 52.9195 57.9396 52.9625C58.174 53.4294 58.7263 53.8586 60.1573 54.3388C60.9111 54.5787 61.5826 55.0257 62.0955 55.6289C62.2999 55.884 62.6458 55.9771 62.9503 55.8591C63.2136 55.7467 63.3846 55.4878 63.3847 55.2011C63.3847 55.1283 63.3731 55.056 63.3503 54.9869C63.2259 54.591 63.0603 54.2092 62.8563 53.848C62.4789 54.0064 62.0848 54.1216 61.6816 54.1916C61.6468 54.1968 61.6116 54.1995 61.5763 54.1995C61.2318 54.1982 60.9458 53.9325 60.9186 53.5885C60.8915 53.2444 61.1323 52.937 61.4723 52.8815C62.5655 52.7033 63.5448 52.1017 64.1992 51.2067C63.1818 51.5151 62.0843 51.4135 61.1406 50.9235C60.8616 50.7784 60.601 50.6003 60.3645 50.3929C60.1002 50.4992 59.8183 50.5548 59.5335 50.5567C58.6586 50.559 57.8585 50.0631 57.4701 49.2779C57.3642 49.0659 57.3793 48.8134 57.5096 48.6156C57.64 48.4178 57.8658 48.3046 58.102 48.3188C58.3382 48.3329 58.5489 48.4722 58.6548 48.6842C58.7864 48.9351 59.0181 49.1183 59.2923 49.1884C59.5665 49.2584 59.8575 49.2088 60.093 49.0517C60.4941 48.7718 60.6299 48.2398 60.4122 47.8014C60.3057 47.5896 60.3201 47.3371 60.45 47.1389C60.5798 46.9406 60.8053 46.8269 61.0416 46.8404C61.2779 46.8539 61.4891 46.9926 61.5955 47.2044C61.9758 47.9545 61.9084 48.8542 61.4207 49.5392C61.5226 49.6136 61.6297 49.6805 61.7412 49.7395C62.8795 50.3077 64.2557 50.0548 65.1183 49.1187L65.1342 49.1021C65.8221 48.332 66.0367 47.2479 65.6944 46.2731C65.5411 46.3938 65.3753 46.4977 65.1998 46.5829C65.112 46.6245 65.0161 46.646 64.919 46.6459C64.6116 46.6429 64.3466 46.4283 64.2794 46.1277C64.2121 45.8272 64.3602 45.5198 64.6369 45.3856C64.9008 45.2614 65.1199 45.0584 65.264 44.8046C65.5866 44.2296 65.4643 43.5071 64.9705 43.0709C64.4767 42.6346 63.7457 42.6033 63.2165 42.9958C63.0273 43.1379 62.7767 43.1682 62.5591 43.0751C62.3416 42.982 62.1901 42.7797 62.1618 42.5445C62.1335 42.3092 62.2327 42.0767 62.4219 41.9345C62.6797 41.7416 62.9699 41.5967 63.2788 41.5067C62.8478 39.6534 61.2534 38.3034 59.3573 38.1862C59.3585 38.2088 59.3616 38.2309 59.3647 38.2529L59.3647 38.253C59.3687 38.2807 59.3726 38.3083 59.3726 38.3368C59.3726 38.7031 59.0761 39.0001 58.7104 39.0001C58.3447 39.0001 58.0482 38.7031 58.0482 38.3368C58.0482 37.5662 57.4246 36.9415 56.6553 36.9415C55.886 36.9415 55.2624 37.5662 55.2624 38.3368C55.2624 38.7031 54.9659 39.0001 54.6002 39.0001C54.2345 39.0001 53.938 38.7031 53.938 38.3368C53.9418 38.0403 53.9944 37.7465 54.0936 37.4672C53.5727 37.1237 52.9632 36.9393 52.3395 36.9365C51.1935 36.9417 50.1338 37.5474 49.5464 38.5331C49.3937 38.7925 49.278 39.072 49.2027 39.3635C49.1051 39.7107 48.7484 39.9161 48.3998 39.8259C48.0511 39.7357 47.8383 39.383 47.9207 39.0319C47.9601 38.8912 48.0065 38.7527 48.0598 38.6167C47.98 38.6031 47.8996 38.5942 47.8188 38.5901C46.8706 38.5928 46.0528 39.2578 45.8554 40.1867C46.6023 40.2609 47.2837 40.646 47.7333 41.248C47.8743 41.4383 47.9033 41.6894 47.8093 41.9069C47.7152 42.1244 47.5125 42.2751 47.2775 42.3022C47.0425 42.3294 46.8109 42.2289 46.6699 42.0386C46.4103 41.6839 45.9971 41.4748 45.5581 41.4761C44.9307 41.4786 44.3818 41.8992 44.2152 42.5051ZM42.6806 49.3033L42.6806 49.3033L42.8627 49.2795C44.0871 51.2393 46.4287 52.1909 48.6701 51.6395C49.2724 52.7845 50.3728 53.5829 51.6467 53.7992C52.9205 54.0155 54.2222 53.6248 55.1675 52.7426C55.6175 52.877 56.0809 52.9611 56.5494 52.9933C56.8693 54.2085 57.7937 54.9447 59.7359 55.5967C60.2594 55.7612 60.7265 56.0693 61.0841 56.4862C61.4816 56.9597 62.0663 57.2349 62.6839 57.2391C62.954 57.239 63.2213 57.1844 63.4699 57.0786C64.2205 56.7572 64.7075 56.0184 64.7076 55.2008C64.7082 54.9875 64.6742 54.7756 64.6069 54.5733C64.458 54.1046 64.2619 53.6524 64.0215 53.2235C65.1476 52.4126 65.932 51.211 66.222 49.8526C66.363 49.6847 66.4905 49.506 66.6034 49.318C66.6521 49.3242 66.7009 49.3303 66.7496 49.3365L66.7498 49.3365L66.7498 49.3365L66.7498 49.3365C66.9229 49.3582 67.0961 49.3799 67.2702 49.4088L69.6607 63.8117C64.988 62.2488 59.9349 62.2488 55.2621 63.8117V55.5085C55.2621 55.1422 54.9657 54.8452 54.6 54.8452C54.2343 54.8452 53.9378 55.1422 53.9378 55.5085V63.8143C49.2656 62.25 44.2126 62.2481 39.5392 63.809L41.9291 49.4055C42.1752 49.3692 42.4277 49.3363 42.6805 49.3033L42.6805 49.3033L42.6806 49.3033ZM36.351 65.9965C36.3139 66.1895 36.3649 66.389 36.49 66.5404C36.6168 66.695 36.8061 66.7846 37.0059 66.7845H50.6813L50.8786 64.38C47.2323 63.6905 43.4714 63.9296 39.9413 65.0752C39.5019 65.2129 39.0227 65.1131 38.6746 64.8112C38.3265 64.5094 38.1591 64.0487 38.2322 63.5934L40.3102 51.0842H39.2507L36.351 65.9965ZM54.5999 68.1115C53.0047 68.1115 52.0896 67.6392 51.9552 67.429L52.183 64.6763C52.9111 64.8579 53.6236 65.0972 54.3139 65.392C54.4031 65.4351 54.5009 65.4577 54.5999 65.4583C54.6993 65.4582 54.7973 65.4355 54.8867 65.392C55.5765 65.0955 56.2888 64.8546 57.0169 64.6716L57.2447 67.4283C57.1103 67.6392 56.1951 68.1115 54.5999 68.1115ZM72.1942 66.7847C72.394 66.7848 72.5833 66.6953 72.7101 66.5406C72.8361 66.3894 72.8879 66.1896 72.8511 65.996L69.9508 51.0851H68.8913L70.9672 63.5916C71.0411 64.0461 70.8751 64.5066 70.5283 64.809C70.1815 65.1114 69.7033 65.2126 69.2641 65.0767C65.733 63.9286 61.9705 63.6875 58.3221 64.3756L58.5208 66.7847H72.1942Z" fill="white"/>
<path d="M52.4464 45.6559C52.1726 45.8945 52.1514 46.3016 52.399 46.5655C52.9664 47.1688 53.7163 47.5852 54.5429 47.7559C54.1685 48.2639 53.5615 48.5653 52.9147 48.5644C52.5453 48.5644 52.2458 48.8528 52.2458 49.2085C52.2458 49.5643 52.5453 49.8527 52.9147 49.8527C54.2995 49.858 55.542 49.0344 56.0312 47.7868C57.6945 47.5214 59.0114 46.2885 59.3337 44.6948C59.3835 44.4668 59.3016 44.2308 59.1196 44.0774C58.9376 43.924 58.6837 43.8772 58.4557 43.955C58.2277 44.0328 58.0611 44.223 58.0199 44.4526C57.8888 45.117 57.4907 45.7047 56.9122 46.0881C55.7993 46.81 54.3067 46.6461 53.391 45.7016C53.1432 45.4379 52.7204 45.4175 52.4464 45.6559V45.6559Z" fill="white"/>
<path d="M50.488 44.5104C50.839 44.5104 51.1236 44.2258 51.1236 43.8747C51.1236 43.4364 51.2977 43.016 51.6077 42.7061C51.9176 42.3961 52.338 42.222 52.7763 42.222C53.1274 42.222 53.412 41.9374 53.412 41.5863C53.412 41.2353 53.1274 40.9507 52.7763 40.9507C51.1622 40.9524 49.854 42.2605 49.8523 43.8747C49.8523 44.0433 49.9193 44.205 50.0385 44.3242C50.1577 44.4434 50.3194 44.5104 50.488 44.5104V44.5104Z" fill="white"/>
<path d="M55.786 31.4541V30.8611C55.786 30.5336 55.5205 30.2681 55.1929 30.2681C54.8654 30.2681 54.5999 30.5336 54.5999 30.8611V31.4541C54.5999 31.7816 54.8654 32.0471 55.1929 32.0471C55.5205 32.0471 55.786 31.7816 55.786 31.4541Z" fill="white"/>
<path d="M66.0504 35.1957L65.4622 35.7839C65.3093 35.9316 65.248 36.1503 65.3018 36.3559C65.3557 36.5616 65.5163 36.7222 65.7219 36.776C65.9276 36.8298 66.1463 36.7685 66.294 36.6156L66.8821 36.0274C67.0351 35.8797 67.0964 35.661 67.0425 35.4554C66.9887 35.2497 66.8281 35.0891 66.6225 35.0353C66.4168 34.9815 66.1981 35.0428 66.0504 35.1957Z" fill="white"/>
<path d="M43.919 36.7952C44.1578 36.7951 44.3731 36.6512 44.4645 36.4306C44.5559 36.2099 44.5054 35.9559 44.3365 35.787L43.7459 35.1964C43.5976 35.0429 43.378 34.9813 43.1715 35.0354C42.965 35.0894 42.8037 35.2507 42.7497 35.4572C42.6956 35.6637 42.7572 35.8833 42.9107 36.0315L43.5014 36.6221C43.6121 36.7329 43.7623 36.7952 43.919 36.7952Z" fill="white"/>
<path d="M49.0997 33.8282C49.1985 33.8281 49.2963 33.8121 49.3876 33.7812C49.5719 33.7183 49.7182 33.5978 49.7945 33.446C49.8708 33.2943 49.8707 33.1238 49.7943 32.9721L48.9306 31.256C48.8316 31.047 48.6032 30.8985 48.3333 30.8677C48.0635 30.8369 47.7946 30.9288 47.6304 31.1078C47.4662 31.2868 47.4325 31.5249 47.5422 31.7302L48.4051 33.4463C48.5216 33.6775 48.7957 33.8283 49.0997 33.8282V33.8282Z" fill="white"/>
<path d="M61.8489 30.9092C61.4646 30.7781 61.0241 30.9285 60.8648 31.2454L59.999 32.9681C59.9222 33.1205 59.922 33.2918 59.9984 33.4443C60.0749 33.5968 60.2218 33.7179 60.4067 33.781C60.4982 33.812 60.5963 33.8281 60.6953 33.8282C61 33.8283 61.2748 33.677 61.3915 33.4448L62.2566 31.7221C62.3334 31.5697 62.3336 31.3984 62.2571 31.2459C62.1807 31.0934 62.0338 30.9723 61.8489 30.9092V30.9092Z" fill="white"/>
<path d="M68.2798 42.1368C68.3615 42.1366 68.4423 42.1169 68.5177 42.0788L70.2393 41.2136C70.4444 41.1107 70.5886 40.8828 70.6176 40.6158C70.6466 40.3489 70.5561 40.0835 70.38 39.9195C70.2039 39.7556 69.9691 39.718 69.764 39.821L68.0418 40.6861C67.767 40.823 67.6106 41.1768 67.6686 41.5303C67.7265 41.8837 67.9827 42.1379 68.2798 42.1368Z" fill="white"/>
<path d="M41.2761 42.0791C41.5933 42.2386 41.9571 42.056 42.0885 41.6714C42.22 41.2868 42.0695 40.8458 41.7523 40.6864L40.0292 39.8212C39.712 39.662 39.3484 39.8447 39.2171 40.2293C39.0858 40.6139 39.2365 41.0547 39.5537 41.2139L41.2761 42.0791Z" fill="white"/>
</svg>
