<svg width="100%" height="100%" viewBox="0 0 842 596" fill="none" xmlns="http://www.w3.org/2000/svg">
<g clip-path="url(#clip0)">
<rect width="842" height="595" transform="translate(0 0.5)" fill="white"/>
<path d="M822.574 88.5752H88.9795V524.743H822.574V88.5752Z" fill="white"/>
<path d="M822.574 89.9194H88.9795V526.086H822.574V89.9194Z" fill="white"/>
<path d="M468.846 191.814H386.077V211.606H468.846V191.814Z" fill="white"/>
<path fill-rule="evenodd" clip-rule="evenodd" d="M308.957 105.206L311.338 88.5752H380.85V118.612C403.636 118.612 420.013 121.317 429.981 126.729C439.95 132.141 444.933 141.071 444.933 153.519V461.999C444.933 474.988 440.305 484.188 431.048 489.6C421.793 494.47 405.059 496.906 380.85 496.906V526.942L557.237 521.536V491.5C533.028 491.5 516.296 489.065 507.039 484.193C497.784 478.781 493.154 469.581 493.154 456.593V156.231L639.718 524.639L339.062 509.37C344.167 525.871 248.934 526.669 206.847 523.667C184.922 522.103 169.538 518.041 152.746 509.37C136.494 500.345 124.453 489.064 116.623 475.528C108.793 461.99 106.389 447.268 109.411 431.359C112.138 417.003 119.788 405.356 132.36 396.42C145.006 387.097 159.296 382.808 175.23 383.55C190.231 384.228 202.211 389.604 211.172 399.682C220.205 409.372 223.505 420.62 221.074 433.425C219.156 443.513 214.846 451.269 208.142 456.689C201.979 461.755 194.908 465.38 186.927 467.564C179.415 469.781 172.785 471.079 167.041 471.455L159.123 472.07L162.105 478.772C164.633 482.884 169.223 487.342 175.877 492.143C182.529 496.943 192.853 499.842 206.847 500.84C228.305 502.372 246.536 496.003 261.539 481.735C276.543 467.467 286.551 447.14 291.564 420.755L300.415 374.158C310.481 374.151 321.07 373.396 332.181 371.894C351.779 369.247 366.307 364.529 375.766 357.743C385.2 350.892 388.133 342.664 384.57 333.056C381.465 325.179 375.288 319.443 366.043 315.847C356.774 312.187 342.531 309.863 323.313 308.876C319.411 308.686 315.949 308.497 312.924 308.31L319.302 274.748C328.026 274.625 337.288 275.041 347.089 275.993L350.23 262.825C341 261.658 331.546 261.13 321.866 261.243L323.818 250.971H357.089V271.903C357.53 283.287 361.509 291.532 369.023 296.641C376.537 301.751 389.246 304.305 407.151 304.305C414.112 304.305 424.169 303.626 437.32 302.269L436.159 289.462C424.004 290.497 416.101 291.015 412.454 291.015C402.287 291.015 395.103 289.366 390.905 286.068C386.705 282.769 384.605 277.078 384.605 268.994V250.971H409.513C411.837 250.971 413.695 250.288 415.089 248.92C416.716 247.746 417.529 246.183 417.529 244.228V230.153C417.529 228.198 416.716 226.537 415.089 225.169C413.695 223.995 411.837 223.409 409.513 223.409H384.605V207.974H435.166V195.945H384.605V171.208H358.736V197.302H334.013L346.187 133.228C347.881 124.304 345.833 117.669 340.038 113.323C334.245 108.976 323.884 106.271 308.957 105.206ZM331.987 207.974H310.245L323.313 197.302H334.013L331.987 207.974ZM331.987 207.974L329.054 223.409H244.323C241.999 223.409 240.026 223.995 238.399 225.169C237.004 226.537 236.307 228.198 236.307 230.153V244.228C236.307 246.183 237.004 247.746 238.399 248.92C240.026 250.288 241.999 250.971 244.323 250.971H323.818L329.054 223.409H357.089V250.971H384.605V223.409H357.089V207.974H331.987ZM321.866 261.243L319.302 274.748C311.752 274.853 304.605 275.362 297.861 276.273C286.554 277.8 278.193 280.324 272.778 283.844C267.443 287.285 265.708 291.369 267.572 296.096C269.164 300.129 272.697 302.904 278.173 304.421C283.648 305.937 293.878 307.144 308.862 308.04C310.114 308.129 311.469 308.22 312.924 308.31L310.1 323.177L295.756 322.256C290.237 321.949 285.169 321.497 280.551 320.9L281.322 351.581C281.322 354.367 280.799 356.935 279.753 359.286C287.735 360.172 295.483 360.604 302.995 360.581L300.415 374.158C299.557 374.158 298.703 374.154 297.852 374.143C287.134 373.998 278.126 373.158 270.828 371.622L270.499 369.2C267.753 370.827 264.508 372.198 260.767 373.312C256.567 374.562 252.11 375.467 247.395 376.028C242.752 376.588 237.744 376.869 232.365 376.869C227.06 376.869 222.051 376.588 217.335 376.028C212.62 375.467 208.126 374.562 203.853 373.312C199.653 372.018 196.006 370.424 192.912 368.526C189.891 366.586 187.497 364.171 185.728 361.283C183.96 358.394 183.076 355.161 183.076 351.581V304.305H201.642V351.711C201.642 354.816 202.378 357.445 203.853 359.602C205.399 361.757 207.573 363.438 210.372 364.645C213.247 365.81 216.451 366.65 219.988 367.168C223.596 367.685 227.724 367.944 232.365 367.944C241.942 367.944 249.384 366.714 254.688 364.257C260.067 361.8 262.756 357.618 262.756 351.711V317.226C261.064 316.69 259.494 316.117 258.046 315.504C249.712 311.917 244.173 306.791 241.432 300.125C238.224 291.997 241.11 284.504 250.087 277.65C259.173 270.78 273.407 266.037 292.79 263.418C302.697 262.079 312.39 261.354 321.866 261.243ZM302.995 360.581C310.661 360.556 318.082 360.06 325.258 359.09C351.533 355.54 362.909 348.296 359.386 337.355C357.572 332.755 353.342 329.51 346.698 327.619C340.055 325.73 327.903 324.252 310.245 323.186L310.1 323.177L302.995 360.581ZM557.237 88.5746H598.478H639.718L727.463 88.5755V118.611C703.255 118.611 686.521 121.317 677.266 126.729C668.009 131.6 663.381 140.53 663.381 153.519V526.942H683.674L639.718 524.639L649.051 524.72V88.061L602.501 88.5746H557.237ZM557.237 88.5746L552.305 118.611C576.512 118.611 593.246 121.317 602.501 126.729C611.758 131.6 616.386 140.53 616.386 153.519V369.455L493.154 88.5746H557.237ZM453.424 222.823C452.029 224.192 451.334 225.853 451.334 227.807V246.28C451.334 248.236 452.029 249.897 453.424 251.265C455.05 252.634 457.026 253.318 459.348 253.318H478.168C480.491 253.318 482.466 252.634 484.093 251.265C485.719 249.897 486.531 248.236 486.531 246.28V227.807C486.531 225.853 485.719 224.192 484.093 222.823C482.466 221.65 480.491 221.063 478.168 221.063H459.348C457.026 221.063 455.05 221.65 453.424 222.823Z" fill="#5447E5"/>
<path d="M382.46 190.469H468.846V212.071H382.46V190.469Z" fill="white"/>
<path d="M806.347 507.297H88.9795V587.378H806.347V507.297Z" fill="white"/>
<path d="M380.84 496.928L293.668 507.352L295.598 526.887L382.77 516.463L380.84 496.928Z" fill="white"/>
<path d="M292.915 437.17H444.935V507.3H292.915V437.17Z" fill="#5447E5"/>
<path d="M649.043 86.0503H593.738V94.411H649.043V86.0503Z" fill="white"/>
<path d="M649.365 87.9507H648.833V88.5752H649.365V87.9507Z" fill="white"/>
<path fill-rule="evenodd" clip-rule="evenodd" d="M842 0.5H0V595.5H842V0.5ZM817.004 15.9241H24.9953V580.075H817.004V15.9241Z" fill="#5447E5"/>
</g>
<defs>
<clipPath id="clip0">
<rect width="842" height="595" fill="white" transform="translate(0 0.5)"/>
</clipPath>
</defs>
</svg>
