<svg width="100%" height="100%" viewBox="0 0 500 501" fill="none" xmlns="http://www.w3.org/2000/svg">
<g clip-path="url(#clip0)">
<rect width="500" height="500" transform="translate(0 0.5)" fill="white"/>
<path d="M488.464 74.5132H52.8379V441.04H488.464V74.5132Z" fill="white"/>
<path d="M488.464 75.6421H52.8379V442.169H488.464V75.6421Z" fill="white"/>
<path d="M278.411 161.268H229.261V177.9H278.411V161.268Z" fill="white"/>
<path fill-rule="evenodd" clip-rule="evenodd" d="M183.466 88.4884L184.88 74.5127H226.158V99.7533C239.689 99.7533 249.414 102.027 255.333 106.575C261.253 111.123 264.212 118.627 264.212 129.087V388.314C264.212 399.229 261.464 406.96 255.967 411.508C250.471 415.601 240.534 417.648 226.158 417.648V442.888L330.901 438.345V413.105C316.525 413.105 306.589 411.059 301.092 406.965C295.596 402.417 292.847 394.686 292.847 383.771V131.366L379.88 440.953L201.342 428.122C204.374 441.988 147.823 442.659 122.831 440.136C109.811 438.822 100.676 435.408 90.7037 428.122C81.0528 420.538 73.9025 411.058 69.2529 399.683C64.6032 388.307 63.1757 375.935 64.9704 362.566C66.59 350.502 71.1326 340.715 78.5981 333.206C86.1074 325.371 94.5931 321.767 104.056 322.391C112.964 322.96 120.078 327.478 125.399 335.947C130.763 344.09 132.723 353.542 131.279 364.302C130.14 372.78 127.581 379.297 123.6 383.852C119.94 388.109 115.741 391.155 111.002 392.991C106.541 394.854 102.604 395.944 99.1923 396.26L94.4904 396.777L96.2612 402.409C97.7625 405.865 100.489 409.611 104.44 413.645C108.39 417.679 114.521 420.115 122.831 420.954C135.573 422.241 146.399 416.889 155.308 404.899C164.218 392.909 170.161 375.828 173.138 353.655L178.394 314.498C184.371 314.492 190.659 313.858 197.257 312.596C208.894 310.371 217.522 306.407 223.139 300.704C228.741 294.947 230.483 288.033 228.367 279.959C226.523 273.339 222.855 268.519 217.365 265.497C211.861 262.422 203.403 260.469 191.991 259.639C189.674 259.48 187.618 259.321 185.822 259.164L189.609 230.96C194.79 230.857 200.289 231.207 206.109 232.007L207.975 220.941C202.494 219.96 196.88 219.517 191.132 219.612L192.29 210.98H212.048V228.57C212.31 238.136 214.673 245.065 219.135 249.358C223.597 253.652 231.143 255.798 241.775 255.798C245.909 255.798 251.882 255.228 259.691 254.087L259.002 243.325C251.784 244.195 247.09 244.63 244.924 244.63C238.887 244.63 234.622 243.244 232.129 240.473C229.635 237.701 228.387 232.918 228.387 226.125V210.98H243.178C244.558 210.98 245.662 210.406 246.49 209.256C247.456 208.27 247.939 206.956 247.939 205.313V193.486C247.939 191.843 247.456 190.447 246.49 189.297C245.662 188.311 244.558 187.818 243.178 187.818H228.387V174.848H258.412V164.739H228.387V143.952H213.025V165.88H198.344L205.574 112.036C206.58 104.537 205.364 98.9609 201.923 95.3088C198.483 91.6566 192.33 89.3832 183.466 88.4884ZM197.142 174.848H184.231L191.991 165.88H198.344L197.142 174.848ZM197.142 174.848L195.4 187.818H145.085C143.705 187.818 142.533 188.311 141.567 189.297C140.739 190.447 140.325 191.843 140.325 193.486V205.313C140.325 206.956 140.739 208.27 141.567 209.256C142.533 210.406 143.705 210.98 145.085 210.98H192.29L195.4 187.818H212.048V210.98H228.387V187.818H212.048V174.848H197.142ZM191.132 219.612L189.609 230.96C185.126 231.049 180.882 231.476 176.877 232.242C170.163 233.525 165.198 235.646 161.982 238.604C158.814 241.496 157.784 244.928 158.891 248.9C159.836 252.289 161.934 254.621 165.186 255.896C168.437 257.17 174.512 258.184 183.41 258.937C184.153 259.012 184.958 259.088 185.822 259.164L184.145 271.657L175.627 270.883C172.35 270.625 169.34 270.245 166.598 269.744L167.056 295.526C167.056 297.867 166.745 300.025 166.124 302.001C170.864 302.745 175.465 303.108 179.926 303.089L178.394 314.498C177.884 314.498 177.377 314.495 176.872 314.486C170.507 314.364 165.158 313.658 160.824 312.367L160.629 310.332C158.998 311.699 157.071 312.851 154.85 313.787C152.356 314.838 149.709 315.598 146.909 316.07C144.152 316.54 141.178 316.776 137.984 316.776C134.834 316.776 131.859 316.54 129.059 316.07C126.259 315.598 123.59 314.838 121.053 313.787C118.559 312.7 116.393 311.36 114.556 309.765C112.762 308.135 111.34 306.106 110.29 303.679C109.24 301.251 108.715 298.534 108.715 295.526V255.798H119.74V295.635C119.74 298.244 120.177 300.454 121.053 302.266C121.971 304.077 123.262 305.49 124.924 306.504C126.631 307.483 128.534 308.189 130.634 308.624C132.777 309.059 135.228 309.276 137.984 309.276C143.671 309.276 148.09 308.243 151.24 306.178C154.434 304.113 156.031 300.599 156.031 295.635V266.656C155.026 266.206 154.094 265.724 153.234 265.209C148.285 262.195 144.996 257.887 143.368 252.286C141.463 245.455 143.177 239.159 148.508 233.399C153.903 227.626 162.356 223.64 173.866 221.439C179.749 220.314 185.505 219.705 191.132 219.612ZM179.926 303.089C184.478 303.068 188.885 302.651 193.146 301.836C208.749 298.853 215.503 292.765 213.411 283.571C212.334 279.706 209.823 276.979 205.878 275.39C201.933 273.802 194.717 272.56 184.231 271.665L184.145 271.657L179.926 303.089ZM330.901 74.5122H355.391H379.88L431.985 74.5129V99.7532C417.61 99.7532 407.673 102.027 402.177 106.575C396.68 110.668 393.932 118.172 393.932 129.087V442.888H405.982L379.88 440.953L385.422 441.021V74.0806L357.78 74.5122H330.901ZM330.901 74.5122L327.972 99.7532C342.347 99.7532 352.284 102.027 357.78 106.575C363.277 110.668 366.025 118.172 366.025 129.087V310.546L292.847 74.5122H330.901ZM269.253 187.326C268.425 188.476 268.012 189.872 268.012 191.514V207.038C268.012 208.681 268.425 210.077 269.253 211.227C270.219 212.377 271.392 212.952 272.771 212.952H283.947C285.326 212.952 286.499 212.377 287.465 211.227C288.431 210.077 288.913 208.681 288.913 207.038V191.514C288.913 189.872 288.431 188.476 287.465 187.326C286.499 186.34 285.326 185.847 283.947 185.847H272.771C271.392 185.847 270.219 186.34 269.253 187.326Z" fill="#5447E5"/>
<path d="M227.113 160.138H278.411V178.291H227.113V160.138Z" fill="white"/>
<path d="M478.828 426.38H52.8379V493.675H478.828V426.38Z" fill="white"/>
<path d="M226.153 417.666L174.388 426.426L175.534 442.842L227.299 434.082L226.153 417.666Z" fill="white"/>
<path d="M173.939 367.449H264.212V426.382H173.939V367.449Z" fill="#5447E5"/>
<path d="M385.417 72.3916H352.576V79.4174H385.417V72.3916Z" fill="white"/>
<path d="M385.609 73.9873H385.293V74.5121H385.609V73.9873Z" fill="white"/>
<path fill-rule="evenodd" clip-rule="evenodd" d="M500 0.5H0V500.5H500V0.5ZM485.157 13.4614H14.8428V487.538H485.157V13.4614Z" fill="#5447E5"/>
</g>
<defs>
<clipPath id="clip0">
<rect width="500" height="500" fill="white" transform="translate(0 0.5)"/>
</clipPath>
</defs>
</svg>
