<svg width="328" height="328" viewBox="0 0 328 328" fill="none" xmlns="http://www.w3.org/2000/svg">
<circle cx="164.274" cy="164.49" r="163.503" fill="#F2F4FF"/>
<path d="M199.169 141.166C200.383 141.166 201.367 140.18 201.367 138.964V115.013C201.367 111.37 198.409 108.406 194.774 108.406H114.783C111.148 108.406 108.191 111.37 108.191 115.013V214.56C108.191 218.203 111.148 221.167 114.783 221.167H194.774C198.409 221.167 201.367 218.203 201.367 214.56V198.335C201.367 197.118 200.383 196.132 199.169 196.132C197.956 196.132 196.972 197.118 196.972 198.335V214.56C196.972 215.774 195.986 216.762 194.774 216.762H114.783C113.572 216.762 112.586 215.774 112.586 214.56V115.013C112.586 113.799 113.572 112.811 114.783 112.811H194.774C195.986 112.811 196.972 113.799 196.972 115.013V138.964C196.972 140.18 197.956 141.166 199.169 141.166Z" fill="#5447E5"/>
<path fill-rule="evenodd" clip-rule="evenodd" d="M134.897 140.455C134.897 129.328 143.949 120.276 155.076 120.276C166.202 120.276 175.254 129.328 175.254 140.455C175.254 146.227 172.817 151.44 168.919 155.121C168.846 155.199 168.768 155.273 168.683 155.34C165.093 158.626 160.314 160.633 155.075 160.633C149.837 160.633 145.058 158.626 141.468 155.34C141.383 155.273 141.305 155.199 141.232 155.121C137.334 151.44 134.897 146.227 134.897 140.455ZM145.536 153.029C148.189 155.046 151.494 156.246 155.075 156.246C158.657 156.246 161.962 155.046 164.614 153.029C162.686 149.61 159.089 147.473 155.075 147.473C151.061 147.473 147.464 149.61 145.536 153.029ZM151.566 139.578V138.152C151.566 136.217 153.14 134.643 155.075 134.643C157.01 134.643 158.585 136.217 158.585 138.152V139.578C158.585 141.512 157.01 143.087 155.075 143.087C153.14 143.087 151.566 141.512 151.566 139.578ZM161.321 144.4C163.923 145.552 166.165 147.417 167.783 149.817C169.719 147.195 170.867 143.957 170.867 140.455C170.867 131.747 163.782 124.663 155.075 124.663C146.367 124.663 139.283 131.747 139.283 140.455C139.283 143.957 140.431 147.195 142.367 149.817C143.985 147.417 146.226 145.552 148.829 144.4C147.796 143.065 147.179 141.392 147.179 139.578V138.152C147.179 133.798 150.721 130.256 155.075 130.256C159.429 130.256 162.971 133.798 162.971 138.152V139.578C162.971 141.392 162.354 143.065 161.321 144.4Z" fill="#5447E5"/>
<path d="M166.559 205.144H154.866C153.671 205.144 152.701 206.074 152.701 207.221C152.701 208.368 153.671 209.298 154.866 209.298H166.559C167.755 209.298 168.725 208.368 168.725 207.221C168.725 206.074 167.755 205.144 166.559 205.144Z" fill="#5447E5"/>
<path d="M166.527 192.68H135.315C134.101 192.68 133.117 193.61 133.117 194.757C133.117 195.904 134.101 196.834 135.315 196.834H166.527C167.741 196.834 168.725 195.904 168.725 194.757C168.725 193.61 167.741 192.68 166.527 192.68Z" fill="#5447E5"/>
<path d="M166.527 180.217H135.315C134.101 180.217 133.117 181.147 133.117 182.294C133.117 183.442 134.101 184.372 135.315 184.372H166.527C167.741 184.372 168.725 183.442 168.725 182.294C168.725 181.147 167.741 180.217 166.527 180.217Z" fill="#5447E5"/>
<path d="M127.76 168.363C127.374 167.977 126.839 167.754 126.29 167.754C125.744 167.754 125.209 167.977 124.823 168.363C124.437 168.749 124.214 169.285 124.214 169.832C124.214 170.378 124.436 170.914 124.823 171.3C125.211 171.686 125.744 171.909 126.29 171.909C126.839 171.909 127.372 171.686 127.76 171.3C128.146 170.914 128.369 170.378 128.369 169.832C128.369 169.285 128.147 168.749 127.76 168.363Z" fill="#5447E5"/>
<path d="M127.76 180.826C127.372 180.44 126.839 180.217 126.29 180.217C125.744 180.217 125.211 180.44 124.823 180.826C124.437 181.212 124.214 181.748 124.214 182.294C124.214 182.841 124.436 183.377 124.823 183.763C125.211 184.149 125.744 184.372 126.29 184.372C126.839 184.372 127.372 184.149 127.76 183.763C128.146 183.377 128.369 182.841 128.369 182.294C128.369 181.748 128.147 181.212 127.76 180.826Z" fill="#5447E5"/>
<path d="M127.76 193.288C127.372 192.902 126.839 192.68 126.29 192.68C125.744 192.68 125.211 192.902 124.823 193.288C124.437 193.675 124.214 194.211 124.214 194.757C124.214 195.303 124.436 195.839 124.823 196.225C125.209 196.612 125.744 196.834 126.29 196.834C126.839 196.834 127.374 196.612 127.76 196.225C128.146 195.839 128.369 195.303 128.369 194.757C128.369 194.211 128.147 193.675 127.76 193.288Z" fill="#5447E5"/>
<path d="M166.527 167.754H135.315C134.101 167.754 133.117 168.684 133.117 169.832C133.117 170.979 134.101 171.909 135.315 171.909H166.527C167.741 171.909 168.725 170.979 168.725 169.832C168.725 168.684 167.741 167.754 166.527 167.754Z" fill="#5447E5"/>
<path fill-rule="evenodd" clip-rule="evenodd" d="M209.245 136.026C211.645 135.385 214.151 135.714 216.303 136.953C220.744 139.509 222.271 145.192 219.707 149.62L191.84 197.741C191.688 198.005 191.482 198.235 191.236 198.415L177 208.868C176.612 209.153 176.15 209.298 175.687 209.298C175.306 209.298 174.924 209.2 174.58 209.002C173.818 208.563 173.389 207.717 173.487 206.845L175.448 189.327C175.482 189.025 175.579 188.732 175.731 188.468L203.598 140.347C204.84 138.202 206.846 136.668 209.245 136.026ZM179.474 193.172L178.45 202.32L185.883 196.862L179.474 193.172ZM189.112 193.621L180.674 188.764L203.036 150.148L211.474 155.005L189.112 193.621ZM213.689 151.182L215.872 147.412C216.523 146.289 216.695 144.98 216.359 143.726C216.022 142.473 215.216 141.426 214.089 140.777C212.962 140.129 211.649 139.956 210.392 140.292C209.135 140.628 208.085 141.431 207.434 142.555L205.251 146.324L213.689 151.182Z" fill="#5447E5"/>
</svg>
